<?xml version="1.0" encoding="UTF-8" standalone="no"?>
<!DOCTYPE svg PUBLIC "-//W3C//DTD SVG 1.1//EN"
 "http://www.w3.org/Graphics/SVG/1.1/DTD/svg11.dtd">
<!-- Generated by graphviz version 2.40.1 (20161225.0304)
 -->
<!-- Title: Loader Pages: 1 -->
<svg width="941pt" height="370pt"
 viewBox="0.00 0.00 941.00 370.00" xmlns="http://www.w3.org/2000/svg" xmlns:xlink="http://www.w3.org/1999/xlink">
<g id="graph0" class="graph" transform="scale(1 1) rotate(0) translate(4 366)">
<title>Loader</title>
<polygon fill="#ffffff" stroke="transparent" points="-4,4 -4,-366 937,-366 937,4 -4,4"/>
<!-- Source -->
<g id="node1" class="node">
<title>Source</title>
<polygon fill="none" stroke="#000000" points="56,-277.5 56,-361.5 199,-361.5 199,-277.5 56,-277.5"/>
<text text-anchor="middle" x="127.5" y="-346.3" font-family="Helvetica,sans-Serif" font-size="14.00" fill="#000000">&lt;&lt;interface&gt;&gt;</text>
<text text-anchor="middle" x="127.5" y="-331.3" font-family="Helvetica,sans-Serif" font-size="14.00" fill="#000000">config.Source</text>
<polyline fill="none" stroke="#000000" points="56,-323.5 199,-323.5 "/>
<text text-anchor="middle" x="127.5" y="-308.3" font-family="Helvetica,sans-Serif" font-size="14.00" fill="#000000"> </text>
<polyline fill="none" stroke="#000000" points="56,-300.5 199,-300.5 "/>
<text text-anchor="start" x="64" y="-285.3" font-family="Helvetica,sans-Serif" font-size="14.00" fill="#000000">+ Source(): string</text>
</g>
<!-- Loader -->
<g id="node2" class="node">
<title>Loader</title>
<polygon fill="none" stroke="#000000" points="0,-156.5 0,-240.5 255,-240.5 255,-156.5 0,-156.5"/>
<text text-anchor="middle" x="127.5" y="-225.3" font-family="Helvetica,sans-Serif" font-size="14.00" fill="#000000">&lt;&lt;interface&gt;&gt;</text>
<text text-anchor="middle" x="127.5" y="-210.3" font-family="Helvetica,sans-Serif" font-size="14.00" fill="#000000">config.Loader</text>
<polyline fill="none" stroke="#000000" points="0,-202.5 255,-202.5 "/>
<text text-anchor="middle" x="127.5" y="-187.3" font-family="Helvetica,sans-Serif" font-size="14.00" fill="#000000"> </text>
<polyline fill="none" stroke="#000000" points="0,-179.5 255,-179.5 "/>
<text text-anchor="start" x="8" y="-164.3" font-family="Helvetica,sans-Serif" font-size="14.00" fill="#000000">+ Load() : (config.Provider, error)</text>
</g>
<!-- Source&#45;&gt;Loader -->
<g id="edge1" class="edge">
<title>Source&#45;&gt;Loader</title>
<path fill="none" stroke="#000000" d="M127.5,-266.977C127.5,-258.1562 127.5,-249.1052 127.5,-240.5917"/>
<polygon fill="none" stroke="#000000" points="124.0001,-267.18 127.5,-277.1801 131.0001,-267.1801 124.0001,-267.18"/>
</g>
<!-- Composite -->
<g id="node3" class="node">
<title>Composite</title>
<polygon fill="none" stroke="#000000" points="39.5,-.5 39.5,-36.5 185.5,-36.5 185.5,-.5 39.5,-.5"/>
<text text-anchor="middle" x="112.5" y="-14.8" font-family="Helvetica,sans-Serif" font-size="14.00" fill="#000000">composite.Loader</text>
</g>
<!-- Loader&#45;&gt;Composite -->
<g id="edge2" class="edge">
<title>Loader&#45;&gt;Composite</title>
<path fill="none" stroke="#000000" stroke-dasharray="5,2" d="M84.6721,-147.7378C79.2656,-138.9605 74.5625,-129.5663 71.5,-120 65.1312,-100.1057 64.8798,-92.8121 71.5,-73 76.003,-59.5241 85.2932,-46.7067 93.8932,-36.8916"/>
<polygon fill="none" stroke="#000000" points="81.8698,-149.8473 90.2783,-156.293 87.7247,-146.0105 81.8698,-149.8473"/>
</g>
<!-- Data -->
<g id="node4" class="node">
<title>Data</title>
<polygon fill="none" stroke="#000000" points="327.5,-73.5 327.5,-119.5 475.5,-119.5 475.5,-73.5 327.5,-73.5"/>
<text text-anchor="middle" x="401.5" y="-104.3" font-family="Helvetica,sans-Serif" font-size="14.00" fill="#000000">loader.Data</text>
<polyline fill="none" stroke="#000000" points="327.5,-96.5 475.5,-96.5 "/>
<text text-anchor="start" x="335.5" y="-81.3" font-family="Helvetica,sans-Serif" font-size="14.00" fill="#000000">+ Location : string</text>
</g>
<!-- Loader&#45;&gt;Data -->
<g id="edge3" class="edge">
<title>Loader&#45;&gt;Data</title>
<path fill="none" stroke="#000000" stroke-dasharray="5,2" d="M250.1103,-152.8568C281.1116,-141.3161 313.1068,-129.4055 339.6514,-119.5239"/>
<polygon fill="none" stroke="#000000" points="248.6788,-149.6549 240.5282,-156.4238 251.121,-156.2151 248.6788,-149.6549"/>
</g>
<!-- LoaderEntry -->
<g id="node7" class="node">
<title>LoaderEntry</title>
<polygon fill="none" stroke="#000000" points="81,-73.5 81,-119.5 264,-119.5 264,-73.5 81,-73.5"/>
<text text-anchor="middle" x="172.5" y="-104.3" font-family="Helvetica,sans-Serif" font-size="14.00" fill="#000000">composite.LoaderEntry</text>
<polyline fill="none" stroke="#000000" points="81,-96.5 264,-96.5 "/>
<text text-anchor="start" x="89" y="-81.3" font-family="Helvetica,sans-Serif" font-size="14.00" fill="#000000">+ Optional : bool</text>
</g>
<!-- Loader&#45;&gt;LoaderEntry -->
<g id="edge4" class="edge">
<title>Loader&#45;&gt;LoaderEntry</title>
<path fill="none" stroke="#000000" d="M146.063,-156.4238C151.6314,-143.8021 157.5319,-130.4277 162.3424,-119.5239"/>
<text text-anchor="middle" x="154.3424" y="-122.1239" font-family="Helvetica,sans-Serif" font-size="8.00" fill="#000000">1..*</text>
</g>
<!-- Reader -->
<g id="node5" class="node">
<title>Reader</title>
<polygon fill="none" stroke="#000000" points="273,-156.5 273,-240.5 530,-240.5 530,-156.5 273,-156.5"/>
<text text-anchor="middle" x="401.5" y="-225.3" font-family="Helvetica,sans-Serif" font-size="14.00" fill="#000000">&lt;&lt;interface&gt;&gt;</text>
<text text-anchor="middle" x="401.5" y="-210.3" font-family="Helvetica,sans-Serif" font-size="14.00" fill="#000000">loader.Reader</text>
<polyline fill="none" stroke="#000000" points="273,-202.5 530,-202.5 "/>
<text text-anchor="middle" x="401.5" y="-187.3" font-family="Helvetica,sans-Serif" font-size="14.00" fill="#000000"> </text>
<polyline fill="none" stroke="#000000" points="273,-179.5 530,-179.5 "/>
<text text-anchor="start" x="281" y="-164.3" font-family="Helvetica,sans-Serif" font-size="14.00" fill="#000000">+ Read(string) : (io.Reader, error)</text>
</g>
<!-- Reader&#45;&gt;Data -->
<g id="edge6" class="edge">
<title>Reader&#45;&gt;Data</title>
<path fill="none" stroke="#000000" d="M401.5,-156.4238C401.5,-148.2394 401.5,-139.7385 401.5,-131.8"/>
<polygon fill="#000000" stroke="#000000" points="401.5001,-131.5239 397.5,-125.524 401.5,-119.5239 405.5,-125.5239 401.5001,-131.5239"/>
<text text-anchor="middle" x="398.5" y="-122.1239" font-family="Helvetica,sans-Serif" font-size="8.00" fill="#000000">1</text>
</g>
<!-- Parser -->
<g id="node6" class="node">
<title>Parser</title>
<polygon fill="none" stroke="#000000" points="548,-156.5 548,-240.5 933,-240.5 933,-156.5 548,-156.5"/>
<text text-anchor="middle" x="740.5" y="-225.3" font-family="Helvetica,sans-Serif" font-size="14.00" fill="#000000">&lt;&lt;interface&gt;&gt;</text>
<text text-anchor="middle" x="740.5" y="-210.3" font-family="Helvetica,sans-Serif" font-size="14.00" fill="#000000">loader.Parser</text>
<polyline fill="none" stroke="#000000" points="548,-202.5 933,-202.5 "/>
<text text-anchor="middle" x="740.5" y="-187.3" font-family="Helvetica,sans-Serif" font-size="14.00" fill="#000000"> </text>
<polyline fill="none" stroke="#000000" points="548,-179.5 933,-179.5 "/>
<text text-anchor="start" x="556" y="-164.3" font-family="Helvetica,sans-Serif" font-size="14.00" fill="#000000">+ Parse(io.Reader) : (map[string]interface{}, error)</text>
</g>
<!-- Parser&#45;&gt;Data -->
<g id="edge7" class="edge">
<title>Parser&#45;&gt;Data</title>
<path fill="none" stroke="#000000" d="M600.6585,-156.4238C562.3184,-144.8878 521.8887,-132.7231 487.5483,-122.3906"/>
<polygon fill="#000000" stroke="#000000" points="487.1602,-122.2739 480.2621,-124.3755 475.6691,-118.8164 482.5672,-116.7148 487.1602,-122.2739"/>
<text text-anchor="middle" x="478.6691" y="-121.4164" font-family="Helvetica,sans-Serif" font-size="8.00" fill="#000000">1</text>
</g>
<!-- LoaderEntry&#45;&gt;Composite -->
<g id="edge5" class="edge">
<title>LoaderEntry&#45;&gt;Composite</title>
<path fill="none" stroke="#000000" d="M154.498,-73.0974C148.0474,-64.7116 140.7107,-55.174 133.9941,-46.4424"/>
<polygon fill="#000000" stroke="#000000" points="133.8011,-46.1914 126.9723,-43.8745 126.4845,-36.6799 133.3133,-38.9968 133.8011,-46.1914"/>
<text text-anchor="middle" x="118.4845" y="-39.2799" font-family="Helvetica,sans-Serif" font-size="8.00" fill="#000000">1..*</text>
</g>
</g>
</svg>
